<?xml version="1.0" standalone="no"?>
<!DOCTYPE svg PUBLIC "-//W3C//DTD SVG 20010904//EN"
 "http://www.w3.org/TR/2001/REC-SVG-20010904/DTD/svg10.dtd">
<svg version="1.0" xmlns="http://www.w3.org/2000/svg"
 width="664.000000pt" height="610.000000pt" viewBox="0 0 664.000000 610.000000"
 preserveAspectRatio="xMidYMid meet">
<metadata>
Created by potrace 1.15, written by Peter Selinger 2001-2017
</metadata>
<g transform="translate(0.000000,610.000000) scale(0.100000,-0.100000)"
fill="#000000" stroke="none">
<path d="M0 3050 l0 -3050 3320 0 3320 0 0 3050 0 3050 -3320 0 -3320 0 0
-3050z m3725 2549 c593 -83 1131 -366 1543 -812 330 -358 563 -829 641 -1299
75 -451 46 -845 -95 -1267 -91 -275 -235 -540 -424 -783 -139 -180 -417 -433
-615 -560 -600 -387 -1340 -514 -2020 -347 -1054 259 -1838 1156 -1955 2236
-18 165 -8 576 18 714 48 254 124 483 233 701 124 249 267 454 449 642 586
607 1399 890 2225 775z"/>
<path d="M3170 5594 c-324 -30 -643 -119 -925 -259 -264 -130 -450 -262 -659
-464 -218 -212 -374 -427 -511 -706 -203 -410 -292 -859 -256 -1302 45 -570
252 -1066 620 -1495 422 -490 1031 -805 1675 -867 396 -39 818 19 1177 160
981 385 1629 1326 1629 2365 0 480 -118 916 -357 1319 -308 521 -799 921
-1363 1113 -277 94 -490 131 -785 136 -110 2 -220 2 -245 0z m566 -138 c55 -9
161 -32 235 -50 798 -201 1451 -810 1713 -1597 235 -709 130 -1493 -282 -2109
-327 -488 -781 -827 -1332 -993 -243 -74 -440 -102 -710 -101 -239 0 -366 16
-599 75 -248 63 -505 176 -716 315 l-90 59 40 3 c93 6 85 -14 85 212 l0 200
125 0 125 0 0 -199 c0 -172 2 -200 16 -205 20 -8 198 -8 218 0 14 5 16 59 16
499 l0 493 -31 6 c-40 8 -148 8 -188 0 l-31 -6 0 -184 0 -184 -125 0 -125 0 0
184 c0 182 0 184 -22 190 -30 8 -147 8 -187 0 l-31 -6 0 -454 c0 -264 -4 -454
-9 -454 -18 0 -266 247 -346 345 -201 245 -329 478 -430 780 -95 286 -132 536
-122 845 7 208 23 327 68 510 84 337 257 684 470 946 397 487 976 809 1599
890 140 18 527 12 666 -10z"/>
<path d="M3790 4928 c-33 -18 -66 -52 -128 -134 -45 -60 -117 -154 -160 -209
-42 -54 -78 -102 -80 -106 -1 -3 10 -9 25 -12 72 -15 175 -118 190 -189 3 -16
8 -28 11 -28 2 0 35 24 71 53 36 30 130 102 207 160 174 130 189 151 189 263
0 71 -3 85 -28 122 -44 67 -97 96 -181 100 -60 3 -78 0 -116 -20z m259 -300
c-5 -10 -13 -18 -17 -18 -4 0 -63 56 -132 126 -119 119 -124 126 -105 140 18
13 27 7 142 -108 102 -102 120 -124 112 -140z m-106 -95 c-9 -7 -19 -13 -23
-13 -3 0 -56 51 -119 114 -105 106 -112 115 -101 136 12 22 16 18 136 -101
111 -110 122 -125 107 -136z"/>
<path d="M3374 4395 c-10 -42 5 -77 59 -131 108 -108 203 -69 131 53 -49 85
-175 136 -190 78z"/>
<path d="M3253 4305 c-67 -66 -72 -75 -48 -75 63 0 195 -132 195 -195 0 -8 2
-15 5 -15 2 0 34 29 70 65 48 47 61 65 48 65 -53 0 -171 109 -195 181 l-13 37
-62 -63z"/>
<path d="M3146 4174 c-23 -23 -20 -55 12 -105 36 -55 57 -74 106 -94 73 -31
109 3 80 74 -37 89 -158 165 -198 125z"/>
<path d="M3052 4118 c-12 -13 -106 -86 -210 -163 -169 -126 -190 -145 -214
-194 -34 -66 -36 -127 -7 -191 38 -85 102 -129 198 -137 47 -4 65 0 111 24 47
24 68 45 148 153 51 69 124 164 162 213 49 62 64 87 52 87 -29 0 -118 57 -151
97 -17 21 -39 59 -49 85 l-18 48 -22 -22z m-25 -499 c-7 -11 -14 -19 -17 -19
-3 0 -59 54 -125 120 -114 114 -118 120 -100 134 19 14 27 8 137 -101 102
-102 115 -118 105 -134z m-208 27 c76 -76 121 -128 116 -135 -13 -21 -32 -7
-150 108 -89 87 -114 118 -110 132 4 11 9 19 13 19 4 0 63 -56 131 -124z"/>
<path d="M2075 3044 c-11 -3 -37 -10 -58 -15 -93 -24 -164 -135 -155 -243 9
-107 57 -159 202 -219 97 -39 125 -70 106 -116 -22 -54 -129 -66 -239 -28 -25
9 -48 14 -52 11 -4 -2 -15 -38 -25 -80 -21 -88 -24 -85 79 -110 95 -23 233
-16 305 16 94 41 142 120 142 231 -1 109 -55 175 -192 230 -99 40 -128 62
-128 98 0 72 109 89 233 36 13 -6 20 1 32 29 9 20 18 56 21 80 l6 43 -58 16
c-64 17 -187 29 -219 21z"/>
<path d="M2503 2813 c-10 -3 -13 -71 -13 -287 l0 -283 44 -6 c24 -4 67 -4 95
0 l51 6 0 103 0 104 80 0 80 0 0 -104 0 -103 44 -6 c24 -4 67 -4 95 0 l51 6 0
282 c0 322 9 295 -95 295 -97 0 -95 2 -95 -106 l0 -94 -80 0 -80 0 0 94 c0 76
-3 95 -16 100 -18 7 -143 7 -161 -1z"/>
<path d="M3183 2813 l-33 -4 0 -283 0 -283 49 -7 c27 -4 68 -4 90 0 l41 6 2
217 3 216 32 3 c39 4 73 -26 73 -63 0 -27 -26 -85 -38 -85 -4 0 -15 -7 -25
-14 -17 -13 -15 -21 39 -137 31 -68 60 -128 64 -132 8 -9 189 -12 198 -3 3 4
-22 60 -56 125 -47 89 -59 120 -48 124 7 3 23 25 35 49 46 96 14 202 -74 248
-45 23 -61 25 -185 26 -74 1 -150 0 -167 -3z"/>
<path d="M3906 2805 c-59 -21 -108 -66 -140 -128 -25 -49 -29 -69 -30 -139 -1
-114 17 -171 73 -229 55 -56 119 -79 226 -79 62 0 180 22 194 36 5 5 -25 133
-33 141 -1 2 -35 -4 -74 -13 -44 -10 -86 -14 -109 -9 -35 6 -93 53 -93 74 0 7
59 11 168 13 l167 3 3 63 c6 121 -43 219 -131 261 -51 25 -160 28 -221 6z"/>
<path d="M4383 2813 l-33 -4 0 -284 0 -283 66 -8 c93 -9 240 1 298 22 106 37
166 135 166 271 0 104 -17 151 -74 208 -67 67 -129 86 -282 83 -60 0 -124 -3
-141 -5z m252 -159 c20 -9 39 -28 47 -47 16 -39 15 -134 -1 -165 -17 -32 -70
-62 -108 -62 l-33 0 0 145 0 145 31 0 c17 0 46 -7 64 -16z"/>
<path d="M2972 1790 c-141 -30 -238 -143 -261 -302 -27 -189 41 -339 181 -404
59 -27 71 -29 193 -29 95 0 145 5 188 18 52 16 57 20 57 46 0 16 -9 59 -21 96
-18 60 -23 66 -42 61 -139 -40 -206 -42 -267 -11 -25 13 -60 59 -60 80 0 3 94
5 209 5 181 0 210 2 215 16 12 31 6 161 -10 214 -29 98 -82 159 -168 195 -47
20 -156 27 -214 15z m150 -197 c15 -16 30 -40 33 -55 l7 -28 -111 0 c-106 0
-111 1 -111 21 0 12 15 36 34 55 28 28 41 34 78 34 35 0 50 -6 70 -27z"/>
<path d="M3670 1793 c-14 -2 -58 -11 -99 -20 l-73 -17 5 -50 c3 -28 13 -68 22
-87 l17 -36 57 14 c33 9 85 13 128 11 59 -3 76 -8 97 -27 43 -41 34 -47 -71
-54 -123 -8 -184 -28 -238 -81 -113 -109 -73 -300 77 -367 47 -20 69 -23 183
-24 92 0 153 5 208 18 l78 19 -3 261 c-3 246 -4 264 -25 302 -24 46 -65 86
-108 108 -61 30 -172 43 -255 30z m178 -490 l-3 -78 -57 -3 c-94 -5 -152 41
-128 102 14 37 56 55 128 56 l63 0 -3 -77z"/>
<path d="M4355 1794 c-16 -2 -54 -7 -82 -10 l-53 -5 0 -358 0 -358 61 -7 c105
-11 261 -6 327 9 120 28 187 78 233 171 28 56 33 78 37 162 10 205 -67 326
-238 377 -54 16 -226 27 -285 19z m244 -228 c53 -51 65 -168 24 -253 -19 -41
-77 -72 -135 -73 l-38 0 0 181 0 181 60 -4 c49 -3 66 -10 89 -32z"/>
</g>
</svg>
